<?xml version="1.0" standalone="no"?>
<!DOCTYPE svg PUBLIC "-//W3C//DTD SVG 20010904//EN"
 "http://www.w3.org/TR/2001/REC-SVG-20010904/DTD/svg10.dtd">
<svg version="1.0" xmlns="http://www.w3.org/2000/svg"
 width="512.000000pt" height="512.000000pt" viewBox="0 0 512.000000 512.000000"
 preserveAspectRatio="xMidYMid meet">

<g transform="translate(0.000000,512.000000) scale(0.100000,-0.100000)"
fill="#000000" stroke="none">
<path d="M1429 4896 c-20 -7 -49 -22 -65 -34 -16 -11 -228 -220 -470 -464
-482 -484 -470 -469 -462 -579 10 -142 160 -230 296 -174 24 11 126 105 295
273 l257 256 0 -1895 0 -1895 26 -53 c45 -90 140 -134 238 -110 67 16 138 85
154 151 9 35 12 520 12 1925 l0 1878 258 -257 c169 -169 270 -263 294 -273
177 -73 358 110 279 280 -13 27 -172 192 -482 502 -395 392 -470 463 -504 472
-51 14 -81 13 -126 -3z"/>
<path d="M3561 4895 c-61 -19 -118 -78 -136 -139 -13 -43 -15 -305 -15 -1930
l0 -1881 -257 257 c-142 141 -272 263 -290 272 -35 18 -128 21 -166 7 -40 -16
-99 -73 -118 -116 -23 -49 -24 -113 -4 -163 11 -25 160 -182 478 -500 436
-437 465 -463 514 -478 61 -18 111 -12 168 21 22 13 241 225 486 472 487 489
475 473 467 584 -10 142 -160 230 -296 174 -24 -11 -126 -105 -294 -273 l-258
-256 0 1896 0 1896 -28 53 c-48 92 -153 136 -251 104z"/>
</g>
</svg>
